<?xml version="1.0" encoding="UTF-8" standalone="no"?>
<!-- Created with Inkscape (http://www.inkscape.org/) -->

<svg
   width="210mm"
   height="297mm"
   viewBox="0 0 210 297"
   version="1.1"
   id="svg1"
   inkscape:version="1.4 (86a8ad7, 2024-10-11)"
   sodipodi:docname="rudolf_final1.svg"
   xmlns:inkscape="http://www.inkscape.org/namespaces/inkscape"
   xmlns:sodipodi="http://sodipodi.sourceforge.net/DTD/sodipodi-0.dtd"
   xmlns="http://www.w3.org/2000/svg"
   xmlns:svg="http://www.w3.org/2000/svg">
  <sodipodi:namedview
     id="namedview1"
     pagecolor="#ffffff"
     bordercolor="#000000"
     borderopacity="0.25"
     inkscape:showpageshadow="2"
     inkscape:pageopacity="0.0"
     inkscape:pagecheckerboard="0"
     inkscape:deskcolor="#d1d1d1"
     inkscape:document-units="mm"
     inkscape:zoom="2.7545174"
     inkscape:cx="206.38824"
     inkscape:cy="188.23624"
     inkscape:window-width="1920"
     inkscape:window-height="991"
     inkscape:window-x="-9"
     inkscape:window-y="-9"
     inkscape:window-maximized="1"
     inkscape:current-layer="layer1" />
  <defs
     id="defs1" />
  <g
     inkscape:label="Réteg 1"
     inkscape:groupmode="layer"
     id="layer1">
    <path
       id="ellipse4"
       style="fill:none;fill-opacity:1;stroke:#000000;stroke-width:0.202146;stroke-dasharray:none;stroke-opacity:1"
       d="M 60.770451 24.481193 C 60.420239 24.489993 60.066942 24.575199 59.741573 24.745776 C 58.700266 25.291606 58.348926 26.491633 58.954024 27.436051 L 63.25402 34.147786 L 60.387012 32.708081 C 59.672333 32.349282 58.792595 32.590617 58.414522 33.248617 C 58.036427 33.906618 58.30704 34.725358 59.02172 35.084163 L 60.852616 36.003487 C 59.116892 35.715503 57.453568 35.68965 56.163497 35.738904 C 55.463807 35.765634 54.117883 35.954324 54.050964 36.039144 C 53.854317 36.288461 54.162179 37.226694 54.346037 37.918099 C 55.503405 42.269834 58.782965 43.261756 61.449996 42.899707 C 58.559725 45.997616 56.785164 50.145801 56.785164 54.713456 C 56.791764 57.303362 57.379198 59.858705 58.503923 62.192586 C 56.244368 64.013578 55.025713 66.184514 55.012663 68.411328 C 55.012747 74.412977 63.5901 79.278359 74.170667 79.278365 C 84.751306 79.278416 93.328587 74.413017 93.32867 68.411328 C 93.32697 66.177764 92.111625 63.998803 89.848779 62.170882 C 90.966188 59.84271 91.54952 57.295037 91.555652 54.713456 C 91.555652 50.291735 89.895337 46.260673 87.167289 43.197363 C 89.645786 43.251343 92.388764 42.051477 93.426339 38.150126 C 93.610199 37.458722 93.91868 36.520484 93.721928 36.271171 C 93.654838 36.186341 92.308063 35.998179 91.608362 35.971448 C 90.548815 35.930998 89.236572 35.94342 87.840116 36.107874 L 88.990434 35.63245 C 89.733625 35.325321 90.073842 34.528247 89.753178 33.845479 C 89.432528 33.162714 88.576116 32.860363 87.832882 33.167485 L 84.851152 34.399967 L 89.712354 28.012244 C 90.396426 27.11352 90.149276 25.892824 89.157865 25.274943 C 88.166454 24.657063 86.817811 24.883165 86.133761 25.781889 L 84.01296 28.567249 L 82.007397 25.346773 C 81.726789 24.8962 81.250531 24.654812 80.75321 24.65741 C 80.454781 24.65901 80.148628 24.748496 79.873678 24.932845 C 79.140339 25.424426 78.91106 26.400419 79.360014 27.121342 L 81.949003 31.278711 L 77.127592 37.613725 C 77.127257 37.613668 77.126893 37.613782 77.126558 37.613725 A 3.2470734 3.2470734 0 0 0 73.882312 34.489368 A 3.2470734 3.2470734 0 0 0 70.636515 37.720695 C 70.615308 37.725069 70.593616 37.728131 70.572437 37.732581 L 66.413517 31.241504 L 69.350806 27.280505 C 69.860138 26.593546 69.715381 25.60455 69.026278 25.062553 C 68.33728 24.520557 67.3729 24.637081 66.863619 25.324036 L 64.588306 28.392582 L 62.712968 25.465629 C 62.297031 24.816345 61.54096 24.462013 60.770451 24.481193 z " />
  </g>
</svg>
