<?xml version="1.0" encoding="UTF-8" standalone="no"?>
<!DOCTYPE svg PUBLIC "-//W3C//DTD SVG 1.1//EN" "http://www.w3.org/Graphics/SVG/1.1/DTD/svg11.dtd">
<svg width="100%" height="100%" viewBox="0 0 575 664" version="1.1" xmlns="http://www.w3.org/2000/svg" xmlns:xlink="http://www.w3.org/1999/xlink" xml:space="preserve" xmlns:serif="http://www.serif.com/" style="fill-rule:evenodd;clip-rule:evenodd;stroke-linejoin:round;stroke-miterlimit:2;">
    <g transform="matrix(1,0,0,1,-609.408,-1250.2)">
        <g transform="matrix(0.907954,-0.524208,0.654211,1.13313,-1195.73,288.393)">
            <path d="M941.472,1696.86C941.602,1695.97 941.17,1695.08 940.32,1694.49C939.47,1693.91 938.313,1693.7 937.23,1693.93C924.741,1696.65 891.901,1703.79 887.492,1704.75C887.18,1704.82 886.846,1704.78 886.575,1704.63C880.341,1701.32 807.464,1662.66 796.345,1656.76C796.03,1656.6 795.84,1656.31 795.84,1656.01C795.84,1655.71 796.03,1655.42 796.345,1655.26C807.464,1649.36 880.341,1610.7 886.575,1607.39C886.846,1607.25 887.18,1607.2 887.492,1607.27C891.901,1608.23 924.741,1615.37 937.23,1618.09C938.313,1618.33 939.471,1618.12 940.321,1617.53C941.171,1616.94 941.603,1616.06 941.473,1615.16C939.384,1601.09 936.209,1587.19 931.947,1573.64C931.798,1573.17 932.146,1572.69 932.732,1572.55C949.511,1568.73 966.12,1563.99 982.369,1558.4C983.399,1558.05 984.141,1557.3 984.35,1556.42C984.559,1555.54 984.207,1554.63 983.412,1554C974.231,1546.69 950.091,1527.47 946.85,1524.89C946.621,1524.71 946.5,1524.45 946.52,1524.19C946.977,1518.21 952.325,1448.31 953.141,1437.65C953.164,1437.34 953.375,1437.07 953.702,1436.92C954.03,1436.77 954.43,1436.76 954.768,1436.89C966.703,1441.66 1044.93,1472.9 1051.62,1475.57C1051.91,1475.69 1052.12,1475.9 1052.21,1476.15C1053.37,1479.69 1062.07,1506.05 1065.38,1516.07C1065.67,1516.94 1066.47,1517.64 1067.53,1517.94C1068.59,1518.24 1069.77,1518.09 1070.67,1517.55C1084.83,1509.07 1098.26,1499.92 1110.78,1490.18C1111.22,1489.84 1111.91,1489.84 1112.35,1490.18C1124.87,1499.92 1138.3,1509.07 1152.46,1517.55C1153.36,1518.09 1154.54,1518.23 1155.59,1517.94C1156.65,1517.64 1157.46,1516.94 1157.75,1516.07C1161.06,1506.05 1169.75,1479.69 1170.92,1476.15C1171.01,1475.9 1171.22,1475.69 1171.51,1475.57C1178.2,1472.9 1256.43,1441.66 1268.36,1436.89C1268.7,1436.76 1269.1,1436.77 1269.43,1436.92C1269.75,1437.07 1269.96,1437.34 1269.99,1437.65C1270.8,1448.31 1276.15,1518.21 1276.61,1524.19C1276.63,1524.45 1276.51,1524.71 1276.28,1524.89C1273.04,1527.47 1248.9,1546.69 1239.72,1554C1238.92,1554.63 1238.57,1555.54 1238.78,1556.42C1238.99,1557.3 1239.73,1558.05 1240.76,1558.4C1257.01,1563.99 1273.62,1568.73 1290.4,1572.55C1290.98,1572.69 1291.33,1573.17 1291.18,1573.64C1286.92,1587.19 1283.75,1601.09 1281.66,1615.16C1281.53,1616.06 1281.96,1616.94 1282.81,1617.53C1283.66,1618.11 1284.82,1618.32 1285.9,1618.09C1298.39,1615.37 1331.23,1608.23 1335.64,1607.27C1335.95,1607.2 1336.28,1607.25 1336.55,1607.39C1342.79,1610.7 1415.66,1649.36 1426.78,1655.26C1427.1,1655.42 1427.29,1655.71 1427.29,1656.01C1427.29,1656.31 1427.1,1656.6 1426.78,1656.76C1415.66,1662.66 1342.79,1701.32 1336.55,1704.63C1336.28,1704.78 1335.95,1704.82 1335.64,1704.75C1331.23,1703.79 1298.39,1696.65 1285.9,1693.93C1284.82,1693.7 1283.66,1693.91 1282.81,1694.49C1281.96,1695.08 1281.53,1695.97 1281.66,1696.86C1283.75,1710.93 1286.92,1724.83 1291.18,1738.38C1291.33,1738.85 1290.98,1739.34 1290.4,1739.47C1273.62,1743.29 1257.01,1748.03 1240.76,1753.62C1239.73,1753.98 1238.99,1754.72 1238.78,1755.6C1238.57,1756.48 1238.92,1757.39 1239.72,1758.03C1248.9,1765.33 1273.04,1784.55 1276.28,1787.13C1276.51,1787.31 1276.63,1787.57 1276.61,1787.83C1276.15,1793.81 1270.8,1863.71 1269.99,1874.37C1269.96,1874.68 1269.75,1874.95 1269.43,1875.1C1269.1,1875.25 1268.7,1875.26 1268.36,1875.13C1256.43,1870.36 1178.2,1839.12 1171.51,1836.45C1171.22,1836.33 1171.01,1836.12 1170.92,1835.87C1169.75,1832.33 1161.06,1805.97 1157.75,1795.95C1157.46,1795.08 1156.65,1794.38 1155.59,1794.08C1154.54,1793.79 1153.36,1793.93 1152.46,1794.47C1138.3,1802.95 1124.87,1812.1 1112.35,1821.84C1111.91,1822.18 1111.22,1822.18 1110.78,1821.84C1098.26,1812.1 1084.83,1802.95 1070.67,1794.47C1069.77,1793.93 1068.59,1793.79 1067.53,1794.08C1066.48,1794.38 1065.67,1795.08 1065.38,1795.95C1062.07,1805.97 1053.37,1832.33 1052.21,1835.87C1052.12,1836.12 1051.91,1836.33 1051.62,1836.45C1044.93,1839.12 966.703,1870.36 954.768,1875.13C954.43,1875.26 954.03,1875.25 953.702,1875.1C953.375,1874.95 953.164,1874.68 953.141,1874.37C952.325,1863.71 946.977,1793.81 946.52,1787.83C946.5,1787.57 946.621,1787.31 946.85,1787.13C950.091,1784.55 974.231,1765.33 983.412,1758.03C984.208,1757.39 984.56,1756.48 984.351,1755.6C984.142,1754.72 983.4,1753.97 982.37,1753.62C966.12,1748.03 949.511,1743.29 932.732,1739.47C932.146,1739.34 931.798,1738.85 931.948,1738.38C936.209,1724.83 939.384,1710.93 941.472,1696.86Z" style="fill:rgb(235,235,235);"/>
        </g>
    </g>
</svg>
