<?xml version="1.0" encoding="UTF-8" standalone="no"?>
<!DOCTYPE svg PUBLIC "-//W3C//DTD SVG 1.1//EN" "http://www.w3.org/Graphics/SVG/1.1/DTD/svg11.dtd">
<svg width="100%" height="100%" viewBox="0 0 567 709" version="1.1" xmlns="http://www.w3.org/2000/svg" xmlns:xlink="http://www.w3.org/1999/xlink" xml:space="preserve" xmlns:serif="http://www.serif.com/" style="fill-rule:evenodd;clip-rule:evenodd;stroke-linejoin:round;stroke-miterlimit:2;">
    <g transform="matrix(1,0,0,1,-579.912,-1023.61)">
        <g id="Shape" transform="matrix(1.56436,0,0,1.56436,-384.437,-564.401)">
            <path d="M719.073,1300.68C721.935,1295.72 722.503,1289.77 720.63,1284.36C718.757,1278.95 714.628,1274.62 709.314,1272.5C682.595,1261.81 640.055,1244.79 640.055,1244.79C620.818,1237.1 611.447,1215.24 619.141,1196C626.835,1176.76 648.699,1167.39 667.936,1175.09C667.936,1175.09 711.08,1192.34 728.787,1199.42C732.901,1201.07 737.607,1199.73 740.241,1196.17C740.23,1196.06 740.278,1196 740.326,1195.93C743.534,1191.65 742.956,1185.63 738.993,1182.03C721.722,1166.18 710.873,1143.43 710.873,1118.16C710.873,1076.57 740.266,1041.8 779.392,1033.5C780.284,1033.31 780.923,1032.52 780.923,1031.61C780.925,1031.61 780.925,1031.61 780.925,1031.61C780.925,1022.51 788.316,1015.12 797.42,1015.12C806.524,1015.12 813.915,1022.51 813.915,1031.61C813.915,1031.7 813.915,1031.78 813.913,1031.86C813.904,1032.63 814.436,1033.29 815.183,1033.44C854.442,1041.64 883.968,1076.48 883.968,1118.16C883.968,1142.9 873.566,1165.23 856.901,1181.01C852.472,1185.18 851.779,1191.98 855.275,1196.96C855.36,1197.04 855.428,1197.14 855.495,1197.23C857.501,1200.14 861.255,1201.28 864.537,1199.96C881.156,1193.36 926.891,1175.05 926.891,1175.05C946.124,1167.35 967.992,1176.71 975.694,1195.94C983.395,1215.18 974.033,1237.05 954.8,1244.75C954.8,1244.75 912.237,1261.79 885.515,1272.49C880.203,1274.62 876.076,1278.95 874.204,1284.35C872.333,1289.76 872.901,1295.71 875.763,1300.67C895.026,1334.04 931.978,1398.04 931.978,1398.04C944.871,1420.37 937.209,1448.97 914.877,1461.86C892.546,1474.76 863.948,1467.09 851.055,1444.76C851.055,1444.76 830.984,1410 815.398,1383C811.69,1376.58 804.837,1372.62 797.42,1372.62C790.004,1372.62 783.151,1376.58 779.443,1383C763.857,1410 743.785,1444.76 743.785,1444.76C730.892,1467.09 702.295,1474.76 679.963,1461.86C657.632,1448.97 649.969,1420.37 662.862,1398.04C662.862,1398.04 699.809,1334.05 719.073,1300.68Z" style="fill:rgb(235,235,235);"/>
        </g>
    </g>
</svg>
