<?xml version="1.0" encoding="UTF-8" standalone="no"?>
<!DOCTYPE svg PUBLIC "-//W3C//DTD SVG 1.1//EN" "http://www.w3.org/Graphics/SVG/1.1/DTD/svg11.dtd">
<svg width="100%" height="100%" viewBox="0 0 539 650" version="1.1" xmlns="http://www.w3.org/2000/svg" xmlns:xlink="http://www.w3.org/1999/xlink" xml:space="preserve" xmlns:serif="http://www.serif.com/" style="fill-rule:evenodd;clip-rule:evenodd;stroke-linejoin:round;stroke-miterlimit:2;">
    <g transform="matrix(1,0,0,1,-465.315,-959.835)">
        <g id="Shape" transform="matrix(1.48818,0,0,1.48818,-452.077,-575.394)">
            <path d="M719.197,1300.47C722.027,1295.56 722.589,1289.67 720.737,1284.32C718.884,1278.97 714.8,1274.69 709.543,1272.59C682.839,1261.91 640.055,1244.79 640.055,1244.79C620.818,1237.1 611.447,1215.24 619.141,1196C626.835,1176.76 648.699,1167.39 667.936,1175.09C667.936,1175.09 706.259,1190.41 725.491,1198.11C731.256,1200.41 737.848,1198.77 741.856,1194.03C742.238,1193.57 742.63,1193.12 743.032,1192.67C744.009,1191.59 744.497,1190.14 744.382,1188.68C744.267,1187.23 743.558,1185.88 742.422,1184.95C723.158,1169.08 710.873,1145.05 710.873,1118.16C710.873,1070.39 749.653,1031.61 797.42,1031.61C845.187,1031.61 883.968,1070.39 883.968,1118.16C883.968,1145.09 871.641,1169.17 852.325,1185.04C851.218,1185.94 850.529,1187.25 850.42,1188.67C850.311,1190.09 850.792,1191.5 851.749,1192.55C852.484,1193.36 853.191,1194.19 853.866,1195.05C857.122,1199.17 862.699,1200.65 867.572,1198.7C886.137,1191.37 926.891,1175.05 926.891,1175.05C946.124,1167.35 967.992,1176.71 975.694,1195.94C983.395,1215.18 974.033,1237.05 954.8,1244.75C954.8,1244.75 911.212,1262.2 884.562,1272.87C879.489,1274.9 875.548,1279.04 873.761,1284.2C871.974,1289.37 872.517,1295.05 875.249,1299.78C894.361,1332.88 931.978,1398.04 931.978,1398.04C944.871,1420.37 937.209,1448.97 914.877,1461.86C892.546,1474.76 863.948,1467.09 851.055,1444.76C851.055,1444.76 823.808,1397.57 808.154,1370.45C805.94,1366.62 801.848,1364.26 797.42,1364.26C792.992,1364.26 788.9,1366.62 786.686,1370.45C771.033,1397.57 743.785,1444.76 743.785,1444.76C730.892,1467.09 702.295,1474.76 679.963,1461.86C657.632,1448.97 649.969,1420.37 662.862,1398.04C662.862,1398.04 699.967,1333.77 719.197,1300.47Z" style="fill:rgb(235,235,235);"/>
        </g>
    </g>
</svg>
