<?xml version="1.0" encoding="UTF-8" standalone="no"?>
<!DOCTYPE svg PUBLIC "-//W3C//DTD SVG 1.1//EN" "http://www.w3.org/Graphics/SVG/1.1/DTD/svg11.dtd">
<svg width="100%" height="100%" viewBox="0 0 591 827" version="1.1" xmlns="http://www.w3.org/2000/svg" xmlns:xlink="http://www.w3.org/1999/xlink" xml:space="preserve" xmlns:serif="http://www.serif.com/" style="fill-rule:evenodd;clip-rule:evenodd;stroke-linejoin:round;stroke-miterlimit:2;">
    <g id="Nem-lyukas" serif:id="Nem lyukas" transform="matrix(2.43187,0,0,2.43187,-118.69,-557.143)">
        <path d="M221.401,455.477C221.249,455.822 221.31,456.224 221.558,456.508C231.935,468.447 238.22,484.035 238.22,501.079C238.22,538.606 207.752,569.074 170.225,569.074C132.698,569.074 102.23,538.606 102.23,501.079C102.23,484.035 108.515,468.447 118.892,456.508C119.14,456.224 119.201,455.822 119.049,455.477C116.042,448.621 114.372,441.046 114.372,433.084C114.372,417.092 121.108,402.66 131.896,392.474C132.223,392.168 132.297,391.678 132.076,391.288C128.534,384.974 126.514,377.695 126.514,369.947C126.514,358.38 131.017,347.856 138.363,340.035C139.024,339.332 139.205,338.304 138.822,337.419C138.44,336.534 137.568,335.96 136.603,335.96C133.918,335.949 131.371,335.949 131.371,335.949C128.69,335.949 126.514,333.773 126.514,331.093C126.514,328.412 128.69,326.236 131.371,326.236L143.513,326.236C144.157,326.236 144.775,325.98 145.23,325.524C145.685,325.069 145.941,324.451 145.941,323.807C145.941,319.865 145.941,312.51 145.941,312.51C145.941,305.809 151.382,300.368 158.083,300.368L182.367,300.368C189.068,300.368 194.509,305.809 194.509,312.51L194.509,323.807C194.509,324.451 194.765,325.069 195.22,325.524C195.676,325.98 196.293,326.236 196.937,326.236C201.082,326.236 209.079,326.236 209.079,326.236C211.76,326.236 213.936,328.412 213.936,331.093C213.936,333.773 211.76,335.949 209.079,335.949L203.712,335.949C202.765,335.949 201.909,336.513 201.535,337.383C201.161,338.253 201.34,339.262 201.992,339.949C209.398,347.773 213.936,358.334 213.936,369.947C213.936,377.695 211.916,384.974 208.374,391.288C208.153,391.677 208.228,392.168 208.555,392.474C219.342,402.66 226.078,417.092 226.078,433.084C226.078,441.046 224.408,448.621 221.401,455.477Z" style="fill:rgb(235,235,235);"/>
    </g>
</svg>
